<svg id="visual" viewBox="0 0 960 540" width="960" height="540" xmlns="http://www.w3.org/2000/svg" xmlns:xlink="http://www.w3.org/1999/xlink" version="1.1"><rect x="0" y="0" width="960" height="540" fill="#001220"></rect><path d="M0 249L14.5 240.5C29 232 58 215 87.2 226.5C116.3 238 145.7 278 174.8 277.7C204 277.3 233 236.7 262 213.5C291 190.3 320 184.7 349 201.7C378 218.7 407 258.3 436.2 261C465.3 263.7 494.7 229.3 523.8 211.3C553 193.3 582 191.7 611 199.2C640 206.7 669 223.3 698 233.7C727 244 756 248 785.2 251.5C814.3 255 843.7 258 872.8 269.3C902 280.7 931 300.3 945.5 310.2L960 320L960 541L945.5 541C931 541 902 541 872.8 541C843.7 541 814.3 541 785.2 541C756 541 727 541 698 541C669 541 640 541 611 541C582 541 553 541 523.8 541C494.7 541 465.3 541 436.2 541C407 541 378 541 349 541C320 541 291 541 262 541C233 541 204 541 174.8 541C145.7 541 116.3 541 87.2 541C58 541 29 541 14.5 541L0 541Z" fill="#1e1e1e"></path><path d="M0 261L14.5 268C29 275 58 289 87.2 291.3C116.3 293.7 145.7 284.3 174.8 278.8C204 273.3 233 271.7 262 283.2C291 294.7 320 319.3 349 315.7C378 312 407 280 436.2 271.3C465.3 262.7 494.7 277.3 523.8 289.5C553 301.7 582 311.3 611 311.3C640 311.3 669 301.7 698 290.2C727 278.7 756 265.3 785.2 267.8C814.3 270.3 843.7 288.7 872.8 293.5C902 298.3 931 289.7 945.5 285.3L960 281L960 541L945.5 541C931 541 902 541 872.8 541C843.7 541 814.3 541 785.2 541C756 541 727 541 698 541C669 541 640 541 611 541C582 541 553 541 523.8 541C494.7 541 465.3 541 436.2 541C407 541 378 541 349 541C320 541 291 541 262 541C233 541 204 541 174.8 541C145.7 541 116.3 541 87.2 541C58 541 29 541 14.5 541L0 541Z" fill="#322429"></path><path d="M0 350L14.5 350.8C29 351.7 58 353.3 87.2 348.2C116.3 343 145.7 331 174.8 325.2C204 319.3 233 319.7 262 327.7C291 335.7 320 351.3 349 350.2C378 349 407 331 436.2 332.2C465.3 333.3 494.7 353.7 523.8 352.8C553 352 582 330 611 326.8C640 323.7 669 339.3 698 353C727 366.7 756 378.3 785.2 378.2C814.3 378 843.7 366 872.8 360.5C902 355 931 356 945.5 356.5L960 357L960 541L945.5 541C931 541 902 541 872.8 541C843.7 541 814.3 541 785.2 541C756 541 727 541 698 541C669 541 640 541 611 541C582 541 553 541 523.8 541C494.7 541 465.3 541 436.2 541C407 541 378 541 349 541C320 541 291 541 262 541C233 541 204 541 174.8 541C145.7 541 116.3 541 87.2 541C58 541 29 541 14.5 541L0 541Z" fill="#462934"></path><path d="M0 409L14.5 412.3C29 415.7 58 422.3 87.2 428.2C116.3 434 145.7 439 174.8 435.5C204 432 233 420 262 419.3C291 418.7 320 429.3 349 432.8C378 436.3 407 432.7 436.2 430.5C465.3 428.3 494.7 427.7 523.8 431.8C553 436 582 445 611 449C640 453 669 452 698 451.3C727 450.7 756 450.3 785.2 437.8C814.3 425.3 843.7 400.7 872.8 390.3C902 380 931 384 945.5 386L960 388L960 541L945.5 541C931 541 902 541 872.8 541C843.7 541 814.3 541 785.2 541C756 541 727 541 698 541C669 541 640 541 611 541C582 541 553 541 523.8 541C494.7 541 465.3 541 436.2 541C407 541 378 541 349 541C320 541 291 541 262 541C233 541 204 541 174.8 541C145.7 541 116.3 541 87.2 541C58 541 29 541 14.5 541L0 541Z" fill="#5b2e40"></path><path d="M0 502L14.5 500.3C29 498.7 58 495.3 87.2 488.3C116.3 481.3 145.7 470.7 174.8 464.5C204 458.3 233 456.7 262 454.5C291 452.3 320 449.7 349 456.7C378 463.7 407 480.3 436.2 478.7C465.3 477 494.7 457 523.8 453.7C553 450.3 582 463.7 611 465.2C640 466.7 669 456.3 698 451.7C727 447 756 448 785.2 450.8C814.3 453.7 843.7 458.3 872.8 458.5C902 458.7 931 454.3 945.5 452.2L960 450L960 541L945.5 541C931 541 902 541 872.8 541C843.7 541 814.3 541 785.2 541C756 541 727 541 698 541C669 541 640 541 611 541C582 541 553 541 523.8 541C494.7 541 465.3 541 436.2 541C407 541 378 541 349 541C320 541 291 541 262 541C233 541 204 541 174.8 541C145.7 541 116.3 541 87.2 541C58 541 29 541 14.5 541L0 541Z" fill="#70324c"></path></svg>