<svg id="visual" viewBox="0 0 960 540" width="960" height="540" xmlns="http://www.w3.org/2000/svg" xmlns:xlink="http://www.w3.org/1999/xlink" version="1.1"><rect x="0" y="0" width="960" height="540" fill="#001220"></rect><path d="M0 193L14.5 210.3C29 227.7 58 262.3 87.2 283.8C116.3 305.3 145.7 313.7 174.8 312.3C204 311 233 300 262 297.2C291 294.3 320 299.7 349 291C378 282.3 407 259.7 436.2 241C465.3 222.3 494.7 207.7 523.8 198.3C553 189 582 185 611 199.8C640 214.7 669 248.3 698 252C727 255.7 756 229.3 785.2 216.7C814.3 204 843.7 205 872.8 215.3C902 225.7 931 245.3 945.5 255.2L960 265L960 541L945.5 541C931 541 902 541 872.8 541C843.7 541 814.3 541 785.2 541C756 541 727 541 698 541C669 541 640 541 611 541C582 541 553 541 523.8 541C494.7 541 465.3 541 436.2 541C407 541 378 541 349 541C320 541 291 541 262 541C233 541 204 541 174.8 541C145.7 541 116.3 541 87.2 541C58 541 29 541 14.5 541L0 541Z" fill="#1e1e1e"></path><path d="M0 361L14.5 355.5C29 350 58 339 87.2 339.5C116.3 340 145.7 352 174.8 339.5C204 327 233 290 262 280.3C291 270.7 320 288.3 349 293.5C378 298.7 407 291.3 436.2 288.5C465.3 285.7 494.7 287.3 523.8 292C553 296.7 582 304.3 611 310.2C640 316 669 320 698 323.3C727 326.7 756 329.3 785.2 317.7C814.3 306 843.7 280 872.8 269.3C902 258.7 931 263.3 945.5 265.7L960 268L960 541L945.5 541C931 541 902 541 872.8 541C843.7 541 814.3 541 785.2 541C756 541 727 541 698 541C669 541 640 541 611 541C582 541 553 541 523.8 541C494.7 541 465.3 541 436.2 541C407 541 378 541 349 541C320 541 291 541 262 541C233 541 204 541 174.8 541C145.7 541 116.3 541 87.2 541C58 541 29 541 14.5 541L0 541Z" fill="#322429"></path><path d="M0 360L14.5 368.2C29 376.3 58 392.7 87.2 400.5C116.3 408.3 145.7 407.7 174.8 398.3C204 389 233 371 262 361.7C291 352.3 320 351.7 349 355.5C378 359.3 407 367.7 436.2 374.8C465.3 382 494.7 388 523.8 393.3C553 398.7 582 403.3 611 400C640 396.7 669 385.3 698 382C727 378.7 756 383.3 785.2 374.5C814.3 365.7 843.7 343.3 872.8 343C902 342.7 931 364.3 945.5 375.2L960 386L960 541L945.5 541C931 541 902 541 872.8 541C843.7 541 814.3 541 785.2 541C756 541 727 541 698 541C669 541 640 541 611 541C582 541 553 541 523.8 541C494.7 541 465.3 541 436.2 541C407 541 378 541 349 541C320 541 291 541 262 541C233 541 204 541 174.8 541C145.7 541 116.3 541 87.2 541C58 541 29 541 14.5 541L0 541Z" fill="#462934"></path><path d="M0 421L14.5 414.7C29 408.3 58 395.7 87.2 388.5C116.3 381.3 145.7 379.7 174.8 385.5C204 391.3 233 404.7 262 417.3C291 430 320 442 349 442C378 442 407 430 436.2 420C465.3 410 494.7 402 523.8 393.7C553 385.3 582 376.7 611 387.2C640 397.7 669 427.3 698 429.2C727 431 756 405 785.2 392.3C814.3 379.7 843.7 380.3 872.8 385.3C902 390.3 931 399.7 945.5 404.3L960 409L960 541L945.5 541C931 541 902 541 872.8 541C843.7 541 814.3 541 785.2 541C756 541 727 541 698 541C669 541 640 541 611 541C582 541 553 541 523.8 541C494.7 541 465.3 541 436.2 541C407 541 378 541 349 541C320 541 291 541 262 541C233 541 204 541 174.8 541C145.7 541 116.3 541 87.2 541C58 541 29 541 14.5 541L0 541Z" fill="#5b2e40"></path><path d="M0 493L14.5 484.2C29 475.3 58 457.7 87.2 451.8C116.3 446 145.7 452 174.8 453.5C204 455 233 452 262 455.2C291 458.3 320 467.7 349 469.5C378 471.3 407 465.7 436.2 461C465.3 456.3 494.7 452.7 523.8 453.2C553 453.7 582 458.3 611 456.5C640 454.7 669 446.3 698 441.3C727 436.3 756 434.7 785.2 441.5C814.3 448.3 843.7 463.7 872.8 468.8C902 474 931 469 945.5 466.5L960 464L960 541L945.5 541C931 541 902 541 872.8 541C843.7 541 814.3 541 785.2 541C756 541 727 541 698 541C669 541 640 541 611 541C582 541 553 541 523.8 541C494.7 541 465.3 541 436.2 541C407 541 378 541 349 541C320 541 291 541 262 541C233 541 204 541 174.8 541C145.7 541 116.3 541 87.2 541C58 541 29 541 14.5 541L0 541Z" fill="#70324c"></path></svg>