<svg id="visual" viewBox="0 0 960 540" width="960" height="540" xmlns="http://www.w3.org/2000/svg" xmlns:xlink="http://www.w3.org/1999/xlink" version="1.1"><rect x="0" y="0" width="960" height="540" fill="#001220"></rect><path d="M0 241L14.5 244.5C29 248 58 255 87.2 251.3C116.3 247.7 145.7 233.3 174.8 239.2C204 245 233 271 262 270.3C291 269.7 320 242.3 349 230C378 217.7 407 220.3 436.2 231.3C465.3 242.3 494.7 261.7 523.8 264.2C553 266.7 582 252.3 611 254.3C640 256.3 669 274.7 698 267.3C727 260 756 227 785.2 226.7C814.3 226.3 843.7 258.7 872.8 261C902 263.3 931 235.7 945.5 221.8L960 208L960 541L945.5 541C931 541 902 541 872.8 541C843.7 541 814.3 541 785.2 541C756 541 727 541 698 541C669 541 640 541 611 541C582 541 553 541 523.8 541C494.7 541 465.3 541 436.2 541C407 541 378 541 349 541C320 541 291 541 262 541C233 541 204 541 174.8 541C145.7 541 116.3 541 87.2 541C58 541 29 541 14.5 541L0 541Z" fill="#1e1e1e"></path><path d="M0 351L14.5 346.5C29 342 58 333 87.2 323.2C116.3 313.3 145.7 302.7 174.8 292.8C204 283 233 274 262 275.2C291 276.3 320 287.7 349 291.3C378 295 407 291 436.2 288C465.3 285 494.7 283 523.8 289.3C553 295.7 582 310.3 611 304.5C640 298.7 669 272.3 698 276C727 279.7 756 313.3 785.2 317.8C814.3 322.3 843.7 297.7 872.8 285.5C902 273.3 931 273.7 945.5 273.8L960 274L960 541L945.5 541C931 541 902 541 872.8 541C843.7 541 814.3 541 785.2 541C756 541 727 541 698 541C669 541 640 541 611 541C582 541 553 541 523.8 541C494.7 541 465.3 541 436.2 541C407 541 378 541 349 541C320 541 291 541 262 541C233 541 204 541 174.8 541C145.7 541 116.3 541 87.2 541C58 541 29 541 14.5 541L0 541Z" fill="#322429"></path><path d="M0 369L14.5 359.8C29 350.7 58 332.3 87.2 336C116.3 339.7 145.7 365.3 174.8 372C204 378.7 233 366.3 262 368.5C291 370.7 320 387.3 349 383C378 378.7 407 353.3 436.2 344.7C465.3 336 494.7 344 523.8 347C553 350 582 348 611 340.7C640 333.3 669 320.7 698 329.3C727 338 756 368 785.2 380.5C814.3 393 843.7 388 872.8 383.3C902 378.7 931 374.3 945.5 372.2L960 370L960 541L945.5 541C931 541 902 541 872.8 541C843.7 541 814.3 541 785.2 541C756 541 727 541 698 541C669 541 640 541 611 541C582 541 553 541 523.8 541C494.7 541 465.3 541 436.2 541C407 541 378 541 349 541C320 541 291 541 262 541C233 541 204 541 174.8 541C145.7 541 116.3 541 87.2 541C58 541 29 541 14.5 541L0 541Z" fill="#462934"></path><path d="M0 406L14.5 405.2C29 404.3 58 402.7 87.2 396.3C116.3 390 145.7 379 174.8 387.8C204 396.7 233 425.3 262 435.7C291 446 320 438 349 424.8C378 411.7 407 393.3 436.2 391C465.3 388.7 494.7 402.3 523.8 415.2C553 428 582 440 611 443.5C640 447 669 442 698 434C727 426 756 415 785.2 408.2C814.3 401.3 843.7 398.7 872.8 396.5C902 394.3 931 392.7 945.5 391.8L960 391L960 541L945.5 541C931 541 902 541 872.8 541C843.7 541 814.3 541 785.2 541C756 541 727 541 698 541C669 541 640 541 611 541C582 541 553 541 523.8 541C494.7 541 465.3 541 436.2 541C407 541 378 541 349 541C320 541 291 541 262 541C233 541 204 541 174.8 541C145.7 541 116.3 541 87.2 541C58 541 29 541 14.5 541L0 541Z" fill="#5b2e40"></path><path d="M0 466L14.5 462.8C29 459.7 58 453.3 87.2 454.3C116.3 455.3 145.7 463.7 174.8 469.7C204 475.7 233 479.3 262 476C291 472.7 320 462.3 349 465.7C378 469 407 486 436.2 492.8C465.3 499.7 494.7 496.3 523.8 488.3C553 480.3 582 467.7 611 466.5C640 465.3 669 475.7 698 478.8C727 482 756 478 785.2 470.5C814.3 463 843.7 452 872.8 447.3C902 442.7 931 444.3 945.5 445.2L960 446L960 541L945.5 541C931 541 902 541 872.8 541C843.7 541 814.3 541 785.2 541C756 541 727 541 698 541C669 541 640 541 611 541C582 541 553 541 523.8 541C494.7 541 465.3 541 436.2 541C407 541 378 541 349 541C320 541 291 541 262 541C233 541 204 541 174.8 541C145.7 541 116.3 541 87.2 541C58 541 29 541 14.5 541L0 541Z" fill="#70324c"></path></svg>