<svg id="visual" viewBox="0 0 900 600" width="900" height="600" xmlns="http://www.w3.org/2000/svg" xmlns:xlink="http://www.w3.org/1999/xlink" version="1.1"><g stroke-width="1" stroke-linejoin="bevel"><path d="M473 261L508 173L437 228Z" fill="#000000" stroke="#000000"></path><path d="M473 261L572 209L508 173Z" fill="#000000" stroke="#000000"></path><path d="M437 228L391 320L473 261Z" fill="#000000" stroke="#000000"></path><path d="M473 261L613 330L572 209Z" fill="#000000" stroke="#000000"></path><path d="M600 64L497 63L508 173Z" fill="#000000" stroke="#000000"></path><path d="M508 173L395 74L437 228Z" fill="#1b1b1b" stroke="#1b1b1b"></path><path d="M437 228L301 216L391 320Z" fill="#000000" stroke="#000000"></path><path d="M497 63L395 74L508 173Z" fill="#000000" stroke="#000000"></path><path d="M391 320L430 372L473 261Z" fill="#000000" stroke="#000000"></path><path d="M578 378L613 330L473 261Z" fill="#282828" stroke="#282828"></path><path d="M395 74L301 216L437 228Z" fill="#000000" stroke="#000000"></path><path d="M391 320L287 404L430 372Z" fill="#282828" stroke="#282828"></path><path d="M494 408L578 378L473 261Z" fill="#000000" stroke="#000000"></path><path d="M729 113L600 64L572 209Z" fill="#282828" stroke="#282828"></path><path d="M572 209L600 64L508 173Z" fill="#0c0c0c" stroke="#0c0c0c"></path><path d="M430 372L494 408L473 261Z" fill="#141414" stroke="#141414"></path><path d="M673 321L687 237L613 330Z" fill="#212121" stroke="#212121"></path><path d="M613 330L687 237L572 209Z" fill="#1b1b1b" stroke="#1b1b1b"></path><path d="M301 216L303 322L391 320Z" fill="#000000" stroke="#000000"></path><path d="M430 372L393 479L494 408Z" fill="#000000" stroke="#000000"></path><path d="M579 0L495 0L497 63Z" fill="#000000" stroke="#000000"></path><path d="M497 63L395 0L395 74Z" fill="#000000" stroke="#000000"></path><path d="M290 0L291 118L395 74Z" fill="#000000" stroke="#000000"></path><path d="M395 74L291 118L301 216Z" fill="#0c0c0c" stroke="#0c0c0c"></path><path d="M221 417L287 404L303 322Z" fill="#000000" stroke="#000000"></path><path d="M663 381L673 321L613 330Z" fill="#212121" stroke="#212121"></path><path d="M495 0L395 0L497 63Z" fill="#0c0c0c" stroke="#0c0c0c"></path><path d="M600 64L579 0L497 63Z" fill="#000000" stroke="#000000"></path><path d="M736 0L579 0L600 64Z" fill="#1b1b1b" stroke="#1b1b1b"></path><path d="M573 504L663 381L578 378Z" fill="#212121" stroke="#212121"></path><path d="M578 378L663 381L613 330Z" fill="#282828" stroke="#282828"></path><path d="M796 139L729 113L687 237Z" fill="#000000" stroke="#000000"></path><path d="M687 237L729 113L572 209Z" fill="#000000" stroke="#000000"></path><path d="M793 275L687 237L673 321Z" fill="#000000" stroke="#000000"></path><path d="M202 215L303 322L301 216Z" fill="#282828" stroke="#282828"></path><path d="M303 322L287 404L391 320Z" fill="#141414" stroke="#141414"></path><path d="M331 467L393 479L430 372Z" fill="#000000" stroke="#000000"></path><path d="M494 408L573 504L578 378Z" fill="#000000" stroke="#000000"></path><path d="M206 94L202 215L291 118Z" fill="#1b1b1b" stroke="#1b1b1b"></path><path d="M291 118L202 215L301 216Z" fill="#282828" stroke="#282828"></path><path d="M395 0L290 0L395 74Z" fill="#282828" stroke="#282828"></path><path d="M287 404L331 467L430 372Z" fill="#000000" stroke="#000000"></path><path d="M290 0L206 94L291 118Z" fill="#0c0c0c" stroke="#0c0c0c"></path><path d="M521 518L573 504L494 408Z" fill="#141414" stroke="#141414"></path><path d="M393 479L521 518L494 408Z" fill="#000000" stroke="#000000"></path><path d="M515 600L521 518L401 600Z" fill="#000000" stroke="#000000"></path><path d="M774 421L673 321L663 381Z" fill="#1b1b1b" stroke="#1b1b1b"></path><path d="M774 421L793 275L673 321Z" fill="#1b1b1b" stroke="#1b1b1b"></path><path d="M793 275L796 139L687 237Z" fill="#000000" stroke="#000000"></path><path d="M729 113L736 0L600 64Z" fill="#0c0c0c" stroke="#0c0c0c"></path><path d="M137 237L170 319L202 215Z" fill="#212121" stroke="#212121"></path><path d="M202 215L170 319L303 322Z" fill="#1b1b1b" stroke="#1b1b1b"></path><path d="M287 404L221 417L331 467Z" fill="#0c0c0c" stroke="#0c0c0c"></path><path d="M815 0L736 0L729 113Z" fill="#0c0c0c" stroke="#0c0c0c"></path><path d="M170 319L221 417L303 322Z" fill="#141414" stroke="#141414"></path><path d="M116 88L137 237L202 215Z" fill="#0c0c0c" stroke="#0c0c0c"></path><path d="M793 275L832 231L796 139Z" fill="#141414" stroke="#141414"></path><path d="M615 600L727 465L573 504Z" fill="#0c0c0c" stroke="#0c0c0c"></path><path d="M573 504L727 465L663 381Z" fill="#000000" stroke="#000000"></path><path d="M900 280L900 237L832 231Z" fill="#000000" stroke="#000000"></path><path d="M727 465L774 421L663 381Z" fill="#000000" stroke="#000000"></path><path d="M137 237L127 321L170 319Z" fill="#000000" stroke="#000000"></path><path d="M170 319L127 321L221 417Z" fill="#0c0c0c" stroke="#0c0c0c"></path><path d="M290 0L164 0L206 94Z" fill="#000000" stroke="#000000"></path><path d="M206 94L116 88L202 215Z" fill="#000000" stroke="#000000"></path><path d="M0 382L65 425L127 321Z" fill="#0c0c0c" stroke="#0c0c0c"></path><path d="M401 600L521 518L393 479Z" fill="#141414" stroke="#141414"></path><path d="M521 518L515 600L573 504Z" fill="#282828" stroke="#282828"></path><path d="M401 600L393 479L298 600Z" fill="#000000" stroke="#000000"></path><path d="M164 0L116 88L206 94Z" fill="#212121" stroke="#212121"></path><path d="M732 600L776 472L727 465Z" fill="#000000" stroke="#000000"></path><path d="M727 465L776 472L774 421Z" fill="#212121" stroke="#212121"></path><path d="M900 280L832 231L793 275Z" fill="#000000" stroke="#000000"></path><path d="M298 600L393 479L331 467Z" fill="#000000" stroke="#000000"></path><path d="M796 139L815 0L729 113Z" fill="#000000" stroke="#000000"></path><path d="M900 139L815 0L796 139Z" fill="#0c0c0c" stroke="#0c0c0c"></path><path d="M221 417L175 465L331 467Z" fill="#000000" stroke="#000000"></path><path d="M127 321L175 465L221 417Z" fill="#000000" stroke="#000000"></path><path d="M515 600L615 600L573 504Z" fill="#282828" stroke="#282828"></path><path d="M900 280L793 275L900 393Z" fill="#000000" stroke="#000000"></path><path d="M832 231L900 139L796 139Z" fill="#212121" stroke="#212121"></path><path d="M900 393L793 275L774 421Z" fill="#000000" stroke="#000000"></path><path d="M900 237L900 139L832 231Z" fill="#000000" stroke="#000000"></path><path d="M239 600L298 600L331 467Z" fill="#141414" stroke="#141414"></path><path d="M164 0L95 0L116 88Z" fill="#0c0c0c" stroke="#0c0c0c"></path><path d="M65 425L98 461L127 321Z" fill="#1b1b1b" stroke="#1b1b1b"></path><path d="M900 514L900 393L776 472Z" fill="#141414" stroke="#141414"></path><path d="M776 472L900 393L774 421Z" fill="#212121" stroke="#212121"></path><path d="M175 465L239 600L331 467Z" fill="#000000" stroke="#000000"></path><path d="M127 321L137 237L0 305Z" fill="#212121" stroke="#212121"></path><path d="M127 321L98 461L175 465Z" fill="#000000" stroke="#000000"></path><path d="M175 465L100 600L239 600Z" fill="#282828" stroke="#282828"></path><path d="M615 600L732 600L727 465Z" fill="#000000" stroke="#000000"></path><path d="M0 217L137 237L116 88Z" fill="#000000" stroke="#000000"></path><path d="M900 139L900 0L815 0Z" fill="#000000" stroke="#000000"></path><path d="M732 600L765 600L776 472Z" fill="#282828" stroke="#282828"></path><path d="M0 89L0 217L116 88Z" fill="#000000" stroke="#000000"></path><path d="M0 217L0 305L137 237Z" fill="#0c0c0c" stroke="#0c0c0c"></path><path d="M95 0L0 89L116 88Z" fill="#000000" stroke="#000000"></path><path d="M0 305L0 382L127 321Z" fill="#000000" stroke="#000000"></path><path d="M0 471L100 600L98 461Z" fill="#141414" stroke="#141414"></path><path d="M98 461L100 600L175 465Z" fill="#000000" stroke="#000000"></path><path d="M765 600L900 514L776 472Z" fill="#000000" stroke="#000000"></path><path d="M95 0L0 0L0 89Z" fill="#0c0c0c" stroke="#0c0c0c"></path><path d="M0 471L98 461L65 425Z" fill="#000000" stroke="#000000"></path><path d="M0 382L0 471L65 425Z" fill="#000000" stroke="#000000"></path><path d="M765 600L900 600L900 514Z" fill="#000000" stroke="#000000"></path><path d="M0 471L0 600L100 600Z" fill="#000000" stroke="#000000"></path></g></svg>