<svg id="visual" viewBox="0 0 900 600" width="900" height="600" xmlns="http://www.w3.org/2000/svg" xmlns:xlink="http://www.w3.org/1999/xlink" version="1.1"><rect width="900" height="600" fill="#131313"></rect><g><g transform="translate(187 182)"><path d="M0 -132.4L103.5 -82.6L129.1 29.5L57.5 119.3L-57.5 119.3L-129.1 29.5L-103.5 -82.6Z" fill="#4f4f4f"></path></g><g transform="translate(709 536)"><path d="M0 -48L37.5 -29.9L46.8 10.7L20.8 43.2L-20.8 43.2L-46.8 10.7L-37.5 -29.9Z" fill="#4f4f4f"></path></g><g transform="translate(804 279)"><path d="M0 -78L61 -48.6L76 17.4L33.8 70.3L-33.8 70.3L-76 17.4L-61 -48.6Z" fill="#4f4f4f"></path></g><g transform="translate(516 106)"><path d="M0 -18L14.1 -11.2L17.5 4L7.8 16.2L-7.8 16.2L-17.5 4L-14.1 -11.2Z" fill="#4f4f4f"></path></g><g transform="translate(31 420)"><path d="M0 -131L102.4 -81.7L127.7 29.2L56.8 118L-56.8 118L-127.7 29.2L-102.4 -81.7Z" fill="#4f4f4f"></path></g><g transform="translate(468 417)"><path d="M0 -38L29.7 -23.7L37 8.5L16.5 34.2L-16.5 34.2L-37 8.5L-29.7 -23.7Z" fill="#4f4f4f"></path></g></g></svg>